HIERARCHY
ROOT Hips
{
	OFFSET 0.00000 0.00000 0.00000
	CHANNELS 6 Xposition Yposition Zposition Zrotation Yrotation Xrotation 
	JOINT LHipJoint
	{
		OFFSET 0 0 0
		CHANNELS 3 Zrotation Yrotation Xrotation
		JOINT LeftUpLeg
		{
			OFFSET 1.36337 -1.57426 1.11036
			CHANNELS 3 Zrotation Yrotation Xrotation
			JOINT LeftLeg
			{
				OFFSET 2.38468 -6.55187 0.00000
				CHANNELS 3 Zrotation Yrotation Xrotation
				JOINT LeftFoot
				{
					OFFSET 2.37166 -6.51609 0.00000
					CHANNELS 3 Zrotation Yrotation Xrotation
					JOINT LeftToeBase
					{
						OFFSET 0.29078 -0.79891 2.01393
						CHANNELS 3 Zrotation Yrotation Xrotation
						End Site
						{
							OFFSET 0.00000 -0.00000 1.07924
						}
					}
				}
			}
		}
	}
	JOINT RHipJoint
	{
		OFFSET 0 0 0
		CHANNELS 3 Zrotation Yrotation Xrotation
		JOINT RightUpLeg
		{
			OFFSET -1.36349 -1.57426 1.11036
			CHANNELS 3 Zrotation Yrotation Xrotation
			JOINT RightLeg
			{
				OFFSET -2.29562 -6.30717 0.00000
				CHANNELS 3 Zrotation Yrotation Xrotation
				JOINT RightFoot
				{
					OFFSET -2.40985 -6.62100 0.00000
					CHANNELS 3 Zrotation Yrotation Xrotation
					JOINT RightToeBase
					{
						OFFSET -0.23197 -0.63733 1.92232
						CHANNELS 3 Zrotation Yrotation Xrotation
						End Site
						{
							OFFSET -0.00000 -0.00000 1.01562
						}
					}
				}
			}
		}
	}
	JOINT LowerBack
	{
		OFFSET 0 0 0
		CHANNELS 3 Zrotation Yrotation Xrotation
		JOINT Spine
		{
			OFFSET -0.08565 2.03602 -0.24562
			CHANNELS 3 Zrotation Yrotation Xrotation
			JOINT Spine1
			{
				OFFSET -0.00036 2.05693 0.00216
				CHANNELS 3 Zrotation Yrotation Xrotation
				JOINT Neck
				{
					OFFSET 0 0 0
					CHANNELS 3 Zrotation Yrotation Xrotation
					JOINT Neck1
					{
						OFFSET -0.03664 1.69515 0.31789
						CHANNELS 3 Zrotation Yrotation Xrotation
						JOINT Head
						{
							OFFSET 0.00932 1.70181 -0.46013
							CHANNELS 3 Zrotation Yrotation Xrotation
							End Site
							{
								OFFSET 0.01243 1.77620 -0.19377
							}
						}
					}
				}
				JOINT LeftShoulder
				{
					OFFSET 0 0 0
					CHANNELS 3 Zrotation Yrotation Xrotation
					JOINT LeftArm
					{
						OFFSET 3.74344 0.81315 -0.36647
						CHANNELS 3 Zrotation Yrotation Xrotation
						JOINT LeftForeArm
						{
							OFFSET 4.97185 -0.00000 -0.00000
							CHANNELS 3 Zrotation Yrotation Xrotation
							JOINT LeftHand
							{
								OFFSET 3.35811 -0.00000 0.00000
								CHANNELS 3 Zrotation Yrotation Xrotation
								JOINT LeftFingerBase
								{
									OFFSET 0 0 0
									CHANNELS 3 Zrotation Yrotation Xrotation
									JOINT LeftHandIndex1
									{
										OFFSET 0.62278 -0.00000 0.00000
										CHANNELS 3 Zrotation Yrotation Xrotation
										End Site
										{
											OFFSET 0.50210 -0.00000 0.00000
										}
									}
								}
								JOINT LThumb
								{
									OFFSET 0 0 0
									CHANNELS 3 Zrotation Yrotation Xrotation
									End Site
									{
										OFFSET 0.50976 -0.00000 0.50976
									}
								}
							}
						}
					}
				}
				JOINT RightShoulder
				{
					OFFSET 0 0 0
					CHANNELS 3 Zrotation Yrotation Xrotation
					JOINT RightArm
					{
						OFFSET -3.75385 0.50666 -0.06525
						CHANNELS 3 Zrotation Yrotation Xrotation
						JOINT RightForeArm
						{
							OFFSET -4.96493 -0.00000 -0.00000
							CHANNELS 3 Zrotation Yrotation Xrotation
							JOINT RightHand
							{
								OFFSET -3.34929 -0.00000 0.00000
								CHANNELS 3 Zrotation Yrotation Xrotation
								JOINT RightFingerBase
								{
									OFFSET 0 0 0
									CHANNELS 3 Zrotation Yrotation Xrotation
									JOINT RightHandIndex1
									{
										OFFSET -0.63804 -0.00000 0.00000
										CHANNELS 3 Zrotation Yrotation Xrotation
										End Site
										{
											OFFSET -0.51441 -0.00000 0.00000
										}
									}
								}
								JOINT RThumb
								{
									OFFSET 0 0 0
									CHANNELS 3 Zrotation Yrotation Xrotation
									End Site
									{
										OFFSET -0.52226 -0.00000 0.52226
									}
								}
							}
						}
					}
				}
			}
		}
	}
}
MOTION
Frames: 15
Frame Time: .0083333
38.8938 14.1679 -4.0309 176.5200 12.8695 -163.6730 0.0000 0.0000 0.0000 -10.0676 -3.5397 -66.1868 13.7893 19.0489 71.5601 1.0216 -3.7387 -18.2179 0.4420 -4.2658 -11.8257 0.0000 0.0000 0.0000 10.9365 -11.7988 -60.3949 -18.0035 -19.9042 84.1538 -1.3789 13.1838 -21.6174 -0.0533 1.4899 -4.0978 -6.3435 1.6127 28.0666 -3.8244 1.4450 6.3094 -1.2175 1.4089 -8.4022 -1.9834 2.5077 -31.3050 -5.1759 5.5947 13.3295 -0.5928 1.9585 9.3148 -0.0000 0.0000 0.0000 -53.7609 -17.0190 53.5859 53.2371 -54.2205 -28.7804 -0.0000 0.0000 -20.1456 27.2726 -14.4249 -7.3181 -7.1250 0.0000 -0.0000 -0.1546 13.8398 0.1132 -0.0000 0.0000 0.0000 70.2186 11.9501 42.4489 -64.7877 57.4563 -38.3519 0.0000 -0.0000 -12.5821 -18.1346 -18.6288 5.9726 7.1250 -0.0000 -0.0000 9.8516 -49.2561 -1.0431
38.8739 14.1845 -4.0830 176.7770 13.2158 -163.4380 0.0000 0.0000 0.0000 -10.0728 -3.1216 -66.2432 13.8032 19.0533 71.6025 1.0416 -3.8685 -18.3847 0.4786 -4.4365 -12.3080 0.0000 0.0000 0.0000 9.7623 -12.1400 -61.2500 -18.3679 -19.9360 85.2230 -0.6398 15.5529 -16.8069 -0.0712 1.7218 -4.7374 -6.5898 1.7289 28.1249 -3.8947 1.5184 6.3031 -1.1850 1.4504 -8.4395 -2.1739 2.4614 -31.3272 -5.0861 5.5903 13.1402 -0.5325 1.9675 9.2420 -0.0000 -0.0000 0.0000 -52.7202 -17.0267 54.1255 52.5299 -53.9662 -28.2075 -0.0000 0.0000 -20.4421 27.1509 -14.4276 -7.2818 -7.1250 0.0000 -0.0000 -0.2371 13.8536 0.1734 -0.0000 -0.0000 0.0000 70.5485 11.8210 42.9297 -65.1045 57.5234 -38.6191 0.0000 -0.0000 -12.4354 -17.9339 -18.4730 5.8552 7.1250 -0.0000 -0.0000 9.9945 -49.0668 -1.0116
38.8602 14.2085 -4.1296 177.0930 13.5644 -163.2980 0.0000 0.0000 0.0000 -10.0515 -2.5457 -66.1859 13.8003 19.0524 71.5937 1.0622 -4.0432 -18.5499 0.5240 -4.6389 -12.8816 0.0000 0.0000 0.0000 8.5958 -12.5231 -61.8313 -18.5918 -19.9524 85.8796 0.0112 17.9036 -12.4841 -0.2000 2.8796 -7.9437 -6.8266 1.9166 28.2791 -3.9297 1.6933 6.3319 -1.1575 1.5432 -8.4880 -2.1572 2.4674 -31.1779 -5.1370 5.5868 12.8506 -0.5555 1.9779 9.1182 -0.0000 0.0000 0.0000 -51.4730 -17.1423 54.9199 52.0986 -53.8076 -27.8591 -0.0000 0.0000 -20.9228 26.8351 -14.4894 -7.2140 -7.1250 0.0000 -0.0000 -0.4559 13.8286 0.3338 -0.0000 0.0000 0.0000 70.9355 11.5925 43.1325 -65.6167 57.6298 -39.0514 0.0000 -0.0000 -12.2995 -17.7077 -18.3549 5.7415 7.1250 -0.0000 -0.0000 10.1730 -48.9127 -0.9910
38.8479 14.2402 -4.1738 177.4850 13.8426 -163.0510 0.0000 0.0000 0.0000 -9.8384 -2.0965 -66.1724 13.7786 19.0455 71.5273 1.0831 -4.3390 -18.7034 0.4716 -4.4046 -12.2180 0.0000 0.0000 0.0000 7.4266 -12.6806 -62.1898 -18.6399 -19.9556 86.0205 0.5810 20.3692 -9.0165 -0.3276 3.6786 -10.1741 -6.8992 2.0608 28.2782 -3.9521 1.8616 6.3511 -1.1996 1.6239 -8.4708 -1.9475 2.5302 -31.0496 -5.2146 5.5847 12.6660 -0.6173 1.9882 9.0410 0.0000 -0.0000 0.0000 -50.1652 -17.1988 55.7998 52.2329 -53.8573 -27.9675 -0.0000 0.0000 -21.3342 26.2295 -14.1971 -6.8902 -7.1250 0.0000 -0.0000 -0.8417 14.2311 0.6090 0.0000 -0.0000 0.0000 71.3051 11.3521 43.2413 -66.1863 57.7449 -39.5328 0.0000 -0.0000 -12.1718 -17.4884 -18.2956 5.6487 7.1250 -0.0000 -0.0000 10.3629 -48.8197 -0.9860
38.8389 14.2701 -4.2221 177.8840 14.1652 -162.6590 0.0000 0.0000 0.0000 -9.5422 -1.8126 -66.2426 13.7486 19.0360 71.4351 1.1063 -4.5716 -18.8843 0.3915 -4.0178 -11.1266 0.0000 0.0000 0.0000 6.1179 -12.5507 -62.3739 -18.5053 -19.9463 85.6259 1.1749 22.9147 -5.6478 -0.2488 3.2094 -8.8624 -6.8907 2.1556 27.9669 -3.9762 2.0070 6.3827 -1.2634 1.6844 -8.2852 -1.9153 2.5327 -31.0888 -5.1508 5.5589 12.6425 -0.6042 1.9848 9.0360 0.0000 0.0000 0.0000 -48.8627 -17.2277 56.6107 52.6520 -54.0106 -28.3062 -0.0000 0.0000 -21.7948 25.7996 -14.1925 -6.7593 -7.1250 0.0000 -0.0000 -1.1331 14.2919 0.8184 0.0000 0.0000 0.0000 71.5456 11.1838 43.4665 -66.8669 57.8781 -40.1089 0.0000 -0.0000 -12.3073 -17.5913 -18.3234 5.6921 7.1250 -0.0000 -0.0000 10.2739 -48.8632 -0.9884
38.8434 14.2945 -4.2539 178.2760 14.1294 -162.4400 0.0000 0.0000 0.0000 -9.2604 -1.7274 -66.1651 13.6793 19.0139 71.2226 1.1164 -4.3533 -18.9969 0.4893 -4.4851 -12.4457 0.0000 0.0000 0.0000 5.0067 -12.5927 -62.0438 -18.1853 -19.9209 84.6875 1.0070 22.0246 -6.3254 -0.3887 4.0037 -11.0872 -6.8149 2.1163 28.0634 -3.8746 1.9741 6.4000 -1.1848 1.6659 -8.3150 -2.1248 2.5102 -31.0672 -5.0166 5.5823 12.5872 -0.5214 2.0036 9.0027 -0.0000 0.0000 0.0000 -47.5079 -17.1565 57.3614 53.2053 -54.2092 -28.7545 -0.0000 0.0000 -22.2240 25.6087 -14.1186 -6.6686 -7.1250 0.0000 -0.0000 -1.2571 14.3971 0.9053 -0.0000 0.0000 0.0000 71.6337 11.0275 43.8586 -67.5937 58.0153 -40.7249 0.0000 -0.0000 -12.4911 -17.3579 -18.2588 5.5933 7.1250 -0.0000 -0.0000 10.4751 -48.7630 -0.9821
38.8630 14.3135 -4.2696 178.6870 13.9680 -161.9670 0.0000 0.0000 0.0000 -8.8632 -1.6632 -66.4637 13.5923 18.9857 70.9556 1.1040 -4.1654 -18.9096 0.5962 -4.9432 -13.7466 0.0000 0.0000 0.0000 4.1033 -12.4330 -61.7800 -17.7127 -19.8741 83.2990 0.1633 16.8444 -10.1519 -0.7501 5.5319 -15.4322 -6.7389 2.0861 27.8649 -3.7122 1.9526 6.3558 -1.0286 1.6407 -8.2732 -2.2113 2.5218 -30.9926 -5.0004 5.6237 12.5462 -0.4963 2.0230 8.9748 -0.0000 0.0000 0.0000 -46.2459 -17.2951 58.1474 53.5160 -54.3188 -29.0067 -0.0000 0.0000 -22.3606 25.4184 -13.8923 -6.5094 -7.1250 0.0000 -0.0000 -1.3698 14.6683 0.9786 -0.0000 0.0000 0.0000 71.6432 10.7887 44.1884 -68.2657 58.1376 -41.2953 0.0000 -0.0000 -12.5747 -16.9250 -18.1285 5.4088 7.1250 -0.0000 -0.0000 10.8442 -48.5672 -0.9646
38.8995 14.3485 -4.2617 178.8860 13.5095 -161.8900 0.0000 0.0000 0.0000 -8.5213 -1.7652 -66.2871 13.4487 18.9382 70.5134 1.0740 -4.3130 -18.6247 0.5838 -4.8923 -13.6015 0.0000 0.0000 0.0000 2.9587 -12.2937 -60.7771 -17.0469 -19.7896 81.3367 -0.3600 12.2613 -12.8441 -0.6657 5.2179 -14.5311 -6.7638 1.9838 28.3423 -3.5888 1.7809 6.3121 -0.8423 1.5675 -8.5569 -1.9572 2.5711 -31.0781 -5.0885 5.6085 12.7098 -0.5682 2.0071 9.0554 -0.0000 -0.0000 0.0000 -44.8916 -17.5533 58.8937 53.6526 -54.3665 -29.1177 -0.0000 0.0000 -22.4966 25.3175 -13.9686 -6.5147 -7.1250 0.0000 -0.0000 -1.4441 14.5976 1.0339 -0.0000 -0.0000 0.0000 71.8525 10.5463 44.4293 -68.8675 58.2435 -41.8067 0.0000 -0.0000 -12.4396 -17.1290 -18.1887 5.4950 7.1250 -0.0000 -0.0000 10.6702 -48.6581 -0.9729
38.9331 14.3803 -4.2608 179.0250 13.3267 -161.6540 0.0000 0.0000 0.0000 -8.2163 -1.9000 -66.2215 13.3078 18.8905 70.0789 1.0537 -4.2152 -18.4525 0.5816 -4.8834 -13.5763 0.0000 0.0000 0.0000 1.5456 -11.6479 -59.7037 -16.2204 -19.6540 78.8876 -0.6194 9.4332 -14.5534 -0.5788 4.8719 -13.5435 -6.7714 2.0291 28.4765 -3.4955 1.8033 6.2089 -0.7515 1.5736 -8.7457 -1.6655 2.5233 -31.1772 -5.2396 5.4692 13.0007 -0.6880 1.9227 9.1851 0.0000 0.0000 0.0000 -43.7348 -17.9105 59.7474 53.8160 -54.4232 -29.2506 -0.0000 0.0000 -22.4569 25.0579 -14.2006 -6.5430 -7.1250 0.0000 -0.0000 -1.6376 14.3769 1.1802 0.0000 0.0000 0.0000 71.9995 10.1646 44.2172 -69.4257 58.3385 -42.2815 0.0000 -0.0000 -12.5699 -16.9443 -17.9577 5.3663 7.1250 -0.0000 -0.0000 10.7721 -48.3971 -0.9125
38.9646 14.4027 -4.2660 179.0960 13.3779 -161.2730 0.0000 0.0000 0.0000 -8.0178 -1.9432 -66.3565 13.1763 18.8449 69.6722 1.0399 -4.0214 -18.3498 0.5624 -4.8034 -13.3487 0.0000 0.0000 0.0000 0.0418 -10.7581 -58.7517 -15.2859 -19.4586 76.0964 -0.7367 8.2152 -15.4926 -0.6012 4.9635 -13.8046 -6.7388 2.1468 28.2943 -3.3084 1.9473 6.1121 -0.6043 1.6248 -8.7800 -2.3332 2.3826 -30.9011 -5.0676 5.5099 12.9101 -0.5185 1.9383 9.0889 0.0000 -0.0000 0.0000 -43.2056 -18.4120 60.3937 53.8806 -54.4455 -29.3031 -0.0000 0.0000 -22.1539 24.4378 -14.5538 -6.5144 -7.1250 0.0000 -0.0000 -2.0836 14.0709 1.5155 0.0000 -0.0000 0.0000 71.4982 9.7293 44.0902 -70.1413 58.4561 -42.8910 0.0000 -0.0000 -12.7719 -17.1919 -18.1291 5.4990 7.1250 -0.0000 -0.0000 10.5919 -48.6070 -0.9522
39.0175 14.4214 -4.2779 179.3450 13.9711 -160.8440 0.0000 0.0000 0.0000 -7.7489 -1.2823 -66.5155 13.0692 18.8070 69.3403 1.0369 -4.1758 -18.3040 0.4664 -4.3804 -12.1494 0.0000 0.0000 0.0000 -1.2514 -9.2010 -57.8330 -14.3097 -19.2053 73.1481 -0.7824 7.9732 -15.9059 -0.6750 5.2536 -14.6332 -6.8960 2.5326 27.6743 -3.2307 2.4335 6.1182 -0.5646 1.8384 -8.4937 -2.7322 2.1842 -30.6757 -4.9351 5.3676 12.7068 -0.4348 1.8831 8.9657 0.0000 0.0000 0.0000 -42.3238 -19.1799 60.9607 54.1126 -54.5253 -29.4920 -0.0000 0.0000 -22.2870 23.9576 -14.6301 -6.4036 -7.1250 0.0000 -0.0000 -2.4142 14.0478 1.7576 0.0000 0.0000 0.0000 71.2276 9.3377 43.9215 -70.7984 58.5600 -43.4513 0.0000 -0.0000 -13.1654 -18.0079 -18.4181 5.8641 7.1250 -0.0000 -0.0000 9.9066 -49.0220 -0.9915
39.0821 14.4372 -4.2647 179.4600 14.1583 -160.6530 0.0000 0.0000 0.0000 -7.3969 -1.0087 -66.4529 12.9447 18.7621 68.9538 1.0218 -4.2862 -18.1530 0.4025 -4.0730 -11.2822 0.0000 0.0000 0.0000 -2.3620 -7.9311 -56.7926 -13.3826 -18.9160 70.3097 -0.7834 8.3263 -15.9604 -0.8167 5.7665 -16.1083 -7.0105 2.4915 27.5852 -3.2246 2.3473 6.1082 -0.4581 1.7960 -8.4602 -2.8857 2.2520 -30.6543 -4.8255 5.4881 12.5135 -0.3545 1.9544 8.8871 0.0000 -0.0000 0.0000 -41.1915 -19.2474 60.7795 54.6188 -54.6966 -29.9046 -0.0000 0.0000 -22.5174 23.8731 -14.5200 -6.3318 -7.1250 0.0000 -0.0000 -2.4642 14.1770 1.7873 0.0000 -0.0000 0.0000 71.3494 9.4807 44.0866 -70.6361 58.5347 -43.3128 0.0000 -0.0000 -12.7767 -16.9489 -17.9518 5.3661 7.1250 -0.0000 -0.0000 10.7659 -48.3919 -0.9106
39.1536 14.4495 -4.2448 179.4860 14.2493 -160.5740 0.0000 0.0000 0.0000 -7.0997 -0.8977 -66.3350 12.8176 18.7153 68.5581 1.0068 -4.0063 -18.0463 0.4418 -4.2647 -11.8225 0.0000 0.0000 0.0000 -3.3149 -6.9407 -55.8145 -12.5377 -18.6088 67.6833 -0.7458 9.1371 -15.7301 -1.0023 6.3708 -17.8642 -7.1150 2.4857 27.6462 -3.2258 2.2962 6.0722 -0.3873 1.7734 -8.5313 -2.8545 2.3289 -30.6910 -4.8548 5.5848 12.4844 -0.3541 1.9985 8.8855 0.0000 0.0000 0.0000 -40.6423 -19.4565 60.4384 54.6715 -54.7142 -29.9476 -0.0000 0.0000 -22.2563 23.8350 -14.9064 -6.4835 -7.1250 0.0000 -0.0000 -2.5158 13.7652 1.8467 0.0000 0.0000 0.0000 71.3960 9.4871 44.2043 -70.7519 58.5528 -43.4117 0.0000 -0.0000 -12.7817 -16.4445 -17.8819 5.1786 7.1250 -0.0000 -0.0000 11.2194 -48.2484 -0.9097
39.2465 14.4684 -4.1956 179.2270 13.9358 -160.9280 0.0000 0.0000 0.0000 -6.9686 -0.9800 -65.7813 12.6348 18.6463 67.9873 0.9743 -3.8911 -17.7564 0.4483 -4.2958 -11.9105 0.0000 0.0000 0.0000 -4.2633 -6.3274 -54.5383 -11.8296 -18.3177 65.4477 -0.6655 10.2116 -15.1937 -1.0613 6.5499 -18.3885 -7.3497 2.4510 28.4662 -3.1723 2.1381 6.0452 -0.1831 1.7251 -8.9656 -2.8733 2.3533 -30.5680 -4.9474 5.6361 12.3642 -0.3765 2.0197 8.8285 -0.0000 -0.0000 0.0000 -40.5291 -19.9056 59.9311 54.3904 -54.6197 -29.7184 -0.0000 0.0000 -21.9080 23.7786 -15.4971 -6.7143 -7.1250 0.0000 -0.0000 -2.5946 13.1363 1.9391 -0.0000 -0.0000 0.0000 71.2656 9.4097 44.2875 -71.0527 58.5991 -43.6683 0.0000 -0.0000 -12.9126 -16.7814 -18.0436 5.3363 7.1250 -0.0000 -0.0000 10.9531 -48.4604 -0.9454
39.3389 14.4807 -4.1566 179.0480 13.9419 -161.0880 0.0000 0.0000 0.0000 -6.7250 -0.9859 -65.2868 12.4518 18.5752 67.4139 0.9580 -3.8404 -17.6080 0.3787 -3.9521 -10.9419 0.0000 0.0000 0.0000 -5.1144 -5.4557 -53.6500 -11.2783 -18.0686 63.6820 -0.5344 11.3056 -14.2391 -1.0201 6.4253 -18.0235 -7.5074 2.4393 28.6653 -3.1634 2.0827 6.0966 -0.0719 1.7111 -9.0040 -2.7100 2.3494 -30.4335 -5.2556 5.6234 12.1450 -0.5121 2.0026 8.7479 0.0000 0.0000 0.0000 -40.4411 -20.3505 59.1011 54.2830 -54.5833 -29.6308 -0.0000 0.0000 -21.8336 23.8611 -15.6370 -6.7990 -7.1250 0.0000 -0.0000 -2.5492 12.9750 1.9137 0.0000 0.0000 0.0000 71.2191 9.5715 44.3023 -70.9374 58.5814 -43.5700 0.0000 -0.0000 -12.7348 -17.0473 -18.0762 5.4349 7.1250 -0.0000 -0.0000 10.7120 -48.5322 -0.9433
